<svg xmlns="http://www.w3.org/2000/svg" version="1.1" xmlns:xlink="http://www.w3.org/1999/xlink" xmlns:svgjs="http://svgjs.dev/svgjs" width="1000" height="1000" viewBox="0 0 1000 1000"><rect width="1000" height="1000" fill="#351490"></rect><g transform="matrix(0.7,0,0,0.7,150.61875409836063,146.08680161943317)"><svg viewBox="0 0 244 247" data-background-color="#351490" preserveAspectRatio="xMidYMid meet" height="1012" width="1000" xmlns="http://www.w3.org/2000/svg" xmlns:xlink="http://www.w3.org/1999/xlink"><g id="tight-bounds" transform="matrix(1,0,0,1,-0.21567999999999188,-0.09999999999999432)"><svg viewBox="0 0 244.43135999999998 247.2" height="247.2" width="244.43135999999998"><g><svg></svg></g><g><svg viewBox="0 0 244.43135999999998 247.2" height="247.2" width="244.43135999999998"><g transform="matrix(1,0,0,1,0,67.9243637889828)"><svg viewBox="0 0 244.43135999999998 111.35127242203438" height="111.35127242203438" width="244.43135999999998"><g><svg viewBox="0 0 244.43135999999998 111.35127242203438" height="111.35127242203438" width="244.43135999999998"><g><svg viewBox="0 0 244.43135999999998 111.35127242203438" height="111.35127242203438" width="244.43135999999998"><g><svg viewBox="0 0 244.43135999999998 111.35127242203438" height="111.35127242203438" width="244.43135999999998"><g id="textblocktransform"><svg viewBox="0 0 244.43135999999998 111.35127242203438" height="111.35127242203438" width="244.43135999999998" id="textblock"><g><svg viewBox="0 0 244.43135999999998 111.35127242203438" height="111.35127242203438" width="244.43135999999998"><g transform="matrix(1,0,0,1,0,0)"><svg width="244.43135999999998" viewBox="5.42 -38.16 83.76 38.16" height="111.35127242203438" data-palette-color="#ffffff"><path d="M5.42 0L5.42-38.16 24.83-38.16Q29.22-38.16 32.45-37.24 35.67-36.33 37.79-34.59 39.92-32.86 40.95-30.37 41.99-27.88 41.99-24.73L41.99-24.73Q41.99-22.61 41.48-20.69 40.97-18.77 39.9-17.16 38.84-15.55 37.23-14.29 35.62-13.04 33.45-12.21L33.45-12.21 41.75 0 32.28 0 25.1-10.84 24.88-10.84 13.16-10.86 13.16 0 5.42 0ZM13.16-17.55L25.02-17.55Q27.22-17.55 28.87-18.07 30.52-18.58 31.63-19.51 32.74-20.43 33.29-21.77 33.84-23.1 33.84-24.73L33.84-24.73Q33.84-27.93 31.64-29.68 29.44-31.42 25.02-31.42L25.02-31.42 13.16-31.42 13.16-17.55ZM51.14 0L51.14-38.16 71.53-38.16Q75.27-38.16 78.04-37.37 80.81-36.57 82.64-35.18 84.47-33.79 85.36-31.87 86.25-29.96 86.25-27.73L86.25-27.73Q86.25-24.1 83.96-21.36L83.96-21.36Q86.59-19.8 87.89-17.31 89.18-14.82 89.18-11.65L89.18-11.65Q89.18-8.98 88.29-6.84 87.4-4.69 85.58-3.16 83.76-1.64 80.99-0.82 78.22 0 74.46 0L74.46 0 51.14 0ZM58.88-23.51L74.51-23.51Q75.51-23.51 76.46-23.44L76.46-23.44Q78.1-25 78.1-27L78.1-27Q78.1-29.08 76.47-30.21 74.85-31.35 71.73-31.35L71.73-31.35 58.88-31.35 58.88-23.51ZM58.88-6.74L74.66-6.74Q77.78-6.74 79.4-8.08 81.03-9.42 81.03-11.87L81.03-11.87Q81.03-14.31 79.4-15.67 77.78-17.04 74.66-17.04L74.66-17.04 58.88-17.04 58.88-6.74Z" opacity="1" transform="matrix(1,0,0,1,0,0)" fill="#ffffff" class="undefined-text-0" data-fill-palette-color="primary" id="text-0"></path></svg></g></svg></g></svg></g></svg></g><g></g></svg></g></svg></g></svg></g><path d="M0 61.924L0 1 244.431 1 244.431 61.924 234.39 61.924 234.39 11.042 10.042 11.042 10.042 61.924 0 61.924M0 185.276L0 246.2 244.431 246.2 244.431 185.276 234.39 185.276 234.39 236.158 10.042 236.158 10.042 185.276 0 185.276" fill="#ffffff" stroke="transparent" data-fill-palette-color="primary"></path></svg></g><defs></defs></svg><rect width="244.43135999999998" height="247.2" fill="none" stroke="none" visibility="hidden"></rect></g></svg></g></svg>